<mxfile host="app.diagrams.net" modified="2024-04-27T06:24:23.432Z" agent="Mozilla/5.0 (Windows NT 10.0; Win64; x64) AppleWebKit/537.36 (KHTML, like Gecko) Chrome/124.0.0.0 Safari/537.36" etag="y3AjX4dbT1cHTHpVlUiH" version="24.3.1" type="github">
  <diagram name="Page-1" id="9pIJCwKxOQzek6T4j34D">
    <mxGraphModel dx="668" dy="378" grid="1" gridSize="10" guides="1" tooltips="1" connect="1" arrows="1" fold="1" page="1" pageScale="1" pageWidth="850" pageHeight="1100" math="0" shadow="0">
      <root>
        <mxCell id="0" />
        <mxCell id="1" parent="0" />
        <mxCell id="VaE-jd0BoOVrqWtFRDS8-1" value="" style="rounded=0;whiteSpace=wrap;html=1;" vertex="1" parent="1">
          <mxGeometry x="320" y="170" width="210" height="180" as="geometry" />
        </mxCell>
        <mxCell id="VaE-jd0BoOVrqWtFRDS8-2" value="admin" style="shape=umlActor;verticalLabelPosition=bottom;verticalAlign=top;html=1;outlineConnect=0;" vertex="1" parent="1">
          <mxGeometry x="80" y="390" width="30" height="60" as="geometry" />
        </mxCell>
        <mxCell id="VaE-jd0BoOVrqWtFRDS8-3" value="applyer" style="shape=umlActor;verticalLabelPosition=bottom;verticalAlign=top;html=1;outlineConnect=0;" vertex="1" parent="1">
          <mxGeometry x="160" y="460" width="30" height="60" as="geometry" />
        </mxCell>
        <mxCell id="VaE-jd0BoOVrqWtFRDS8-4" value="poster" style="shape=umlActor;verticalLabelPosition=bottom;verticalAlign=top;html=1;outlineConnect=0;" vertex="1" parent="1">
          <mxGeometry x="220" y="400" width="30" height="60" as="geometry" />
        </mxCell>
      </root>
    </mxGraphModel>
  </diagram>
</mxfile>
